<mxfile host="app.diagrams.net" modified="2023-11-14T06:13:35.567Z" agent="Mozilla/5.0 (X11; Ubuntu; Linux x86_64; rv:109.0) Gecko/20100101 Firefox/119.0" etag="9_VIRbjScwC17DHnatWW" version="22.1.0" type="google">
  <diagram name="Page-1" id="CXc2jFlgl0eCMifpBx_X">
    <mxGraphModel grid="1" page="1" gridSize="10" guides="1" tooltips="1" connect="1" arrows="1" fold="1" pageScale="1" pageWidth="850" pageHeight="1100" math="0" shadow="0">
      <root>
        <mxCell id="0" />
        <mxCell id="1" parent="0" />
        <mxCell id="5E32Q3YpaA6r1ni5tTiN-1" value="" style="rounded=0;whiteSpace=wrap;html=1;" vertex="1" parent="1">
          <mxGeometry y="40" width="840" height="440" as="geometry" />
        </mxCell>
        <mxCell id="5E32Q3YpaA6r1ni5tTiN-3" value="" style="rounded=1;whiteSpace=wrap;html=1;" vertex="1" parent="1">
          <mxGeometry x="250" y="100" width="290" height="350" as="geometry" />
        </mxCell>
        <mxCell id="5E32Q3YpaA6r1ni5tTiN-4" value="&amp;nbsp;&amp;nbsp; Book My Charge Station" style="rounded=0;whiteSpace=wrap;html=1;fillColor=#5FC433;fontSize=14;fontStyle=1;align=left;" vertex="1" parent="1">
          <mxGeometry y="40" width="840" height="40" as="geometry" />
        </mxCell>
        <mxCell id="5E32Q3YpaA6r1ni5tTiN-6" value="Sign in" style="rounded=1;whiteSpace=wrap;html=1;fontSize=18;fillColor=#CCFF99;" vertex="1" parent="1">
          <mxGeometry x="350" y="120" width="90" height="40" as="geometry" />
        </mxCell>
        <mxCell id="5E32Q3YpaA6r1ni5tTiN-7" value="&amp;nbsp;&amp;nbsp; Email Address*" style="rounded=1;whiteSpace=wrap;html=1;align=left;" vertex="1" parent="1">
          <mxGeometry x="280" y="190" width="230" height="30" as="geometry" />
        </mxCell>
        <mxCell id="5E32Q3YpaA6r1ni5tTiN-9" value="&lt;div align=&quot;left&quot;&gt;&amp;nbsp;&amp;nbsp; Password*&lt;/div&gt;" style="rounded=1;whiteSpace=wrap;html=1;align=left;" vertex="1" parent="1">
          <mxGeometry x="280" y="230" width="230" height="30" as="geometry" />
        </mxCell>
        <mxCell id="5E32Q3YpaA6r1ni5tTiN-10" value="" style="whiteSpace=wrap;html=1;aspect=fixed;" vertex="1" parent="1">
          <mxGeometry x="280" y="270" width="10" height="10" as="geometry" />
        </mxCell>
        <mxCell id="5E32Q3YpaA6r1ni5tTiN-11" value="SIGN IN" style="rounded=0;whiteSpace=wrap;html=1;fillColor=#54DB00;align=center;fontSize=14;fontStyle=1" vertex="1" parent="1">
          <mxGeometry x="280" y="300" width="230" height="30" as="geometry" />
        </mxCell>
        <mxCell id="5E32Q3YpaA6r1ni5tTiN-12" value="OR" style="rounded=1;whiteSpace=wrap;html=1;" vertex="1" parent="1">
          <mxGeometry x="370" y="345" width="35" height="20" as="geometry" />
        </mxCell>
        <mxCell id="5E32Q3YpaA6r1ni5tTiN-13" value="Remember me" style="text;html=1;strokeColor=none;fillColor=none;align=center;verticalAlign=middle;whiteSpace=wrap;rounded=0;" vertex="1" parent="1">
          <mxGeometry x="280" y="262" width="110" height="30" as="geometry" />
        </mxCell>
        <mxCell id="5E32Q3YpaA6r1ni5tTiN-17" value="Forgot Password?" style="text;html=1;strokeColor=none;fillColor=none;align=left;verticalAlign=middle;whiteSpace=wrap;rounded=0;fontSize=10;fontStyle=4;fontColor=#3333FF;" vertex="1" parent="1">
          <mxGeometry x="280" y="340" width="90" height="30" as="geometry" />
        </mxCell>
        <mxCell id="5E32Q3YpaA6r1ni5tTiN-18" value="Don&#39;t have an account?" style="text;html=1;strokeColor=none;fillColor=none;align=left;verticalAlign=middle;whiteSpace=wrap;rounded=0;fontSize=10;fontStyle=4;fontColor=#6666FF;" vertex="1" parent="1">
          <mxGeometry x="410" y="340" width="110" height="30" as="geometry" />
        </mxCell>
        <mxCell id="5E32Q3YpaA6r1ni5tTiN-21" value="Copyright " style="text;html=1;strokeColor=none;fillColor=none;align=center;verticalAlign=middle;whiteSpace=wrap;rounded=0;fontSize=10;" vertex="1" parent="1">
          <mxGeometry x="280" y="380" width="60" height="30" as="geometry" />
        </mxCell>
        <mxCell id="5E32Q3YpaA6r1ni5tTiN-22" value="Book My ChargeStation 2023" style="text;html=1;strokeColor=none;fillColor=none;align=left;verticalAlign=middle;whiteSpace=wrap;rounded=0;fontSize=10;fontStyle=4" vertex="1" parent="1">
          <mxGeometry x="348" y="380" width="145" height="30" as="geometry" />
        </mxCell>
        <mxCell id="5E32Q3YpaA6r1ni5tTiN-24" value="c" style="ellipse;whiteSpace=wrap;html=1;aspect=fixed;fontSize=10;" vertex="1" parent="1">
          <mxGeometry x="333" y="390" width="10" height="10" as="geometry" />
        </mxCell>
      </root>
    </mxGraphModel>
  </diagram>
</mxfile>
